<svg width="45" height="45" viewBox="0 0 45 45" fill="none" xmlns="http://www.w3.org/2000/svg">
<path d="M42.3 22.9688C42.3 21.5063 42.1688 20.1 41.925 18.75H22.5V26.7281H33.6C33.1219 29.3063 31.6688 31.4906 29.4844 32.9531V38.1281H36.15C40.05 34.5375 42.3 29.25 42.3 22.9688Z" fill="#4285F4"/>
<path d="M22.5 43.125C28.0688 43.125 32.7375 41.2781 36.15 38.1281L29.4844 32.9531C27.6375 34.1906 25.275 34.9219 22.5 34.9219C17.1281 34.9219 12.5813 31.2938 10.9594 26.4188H4.06876V31.7625C7.46251 38.5031 14.4375 43.125 22.5 43.125Z" fill="#34A853"/>
<path d="M10.9594 26.4187C10.5469 25.1812 10.3125 23.8594 10.3125 22.5C10.3125 21.1406 10.5469 19.8187 10.9594 18.5812V13.2375H4.06875C2.625 16.1116 1.87373 19.2836 1.875 22.5C1.875 25.8281 2.67188 28.9781 4.06875 31.7625L10.9594 26.4187Z" fill="#FBBC05"/>
<path d="M22.5 10.0781C25.5281 10.0781 28.2469 11.1187 30.3844 13.1625L36.3 7.24687C32.7281 3.91875 28.0594 1.875 22.5 1.875C14.4375 1.875 7.46251 6.49687 4.06876 13.2375L10.9594 18.5812C12.5813 13.7063 17.1281 10.0781 22.5 10.0781Z" fill="#EA4335"/>
</svg>
