<svg width="59" height="59" viewBox="0 0 59 59" fill="none" xmlns="http://www.w3.org/2000/svg">
<g clip-path="url(#clip0_3_10)">
<path d="M29.523 59.046C45.8281 59.046 59.046 45.8281 59.046 29.523C59.046 13.2179 45.8281 0 29.523 0C13.2179 0 0 13.2179 0 29.523C0 45.8281 13.2179 59.046 29.523 59.046Z" fill="url(#paint0_linear_3_10)"/>
<path fill-rule="evenodd" clip-rule="evenodd" d="M13.3359 29.2011C21.9353 25.4302 27.6835 22.993 30.5807 21.7973C38.7662 18.3944 40.4676 17.7966 41.5713 17.7506C41.8012 17.7506 42.3531 17.7966 42.721 18.0725C42.9969 18.3024 43.0888 18.6243 43.1348 18.8542C43.1808 19.0842 43.2268 19.59 43.1808 20.0039C42.721 24.6485 40.8355 36.007 39.8238 41.2034C39.41 43.4107 38.5822 44.1465 37.8005 44.2385C36.099 44.3765 34.7654 43.0888 33.1099 42.0312C30.5347 40.3297 29.0631 39.272 26.5339 37.6165C23.6368 35.6851 25.5222 34.6274 27.1777 32.9259C27.5916 32.4661 35.1793 25.6142 35.3172 24.9704C35.3172 24.8784 35.3632 24.6025 35.1793 24.4645C34.9953 24.3266 34.7654 24.3726 34.5814 24.4185C34.3055 24.4645 30.1668 27.2237 22.1192 32.65C20.9236 33.4778 19.8659 33.8457 18.9002 33.8457C17.8425 33.8457 15.8192 33.2478 14.3016 32.742C12.4622 32.1442 10.9906 31.8223 11.1286 30.8106C11.2206 30.3047 11.9563 29.7529 13.3359 29.2011Z" fill="white"/>
</g>
<defs>
<linearGradient id="paint0_linear_3_10" x1="0" y1="29.5016" x2="59.0033" y2="29.5016" gradientUnits="userSpaceOnUse">
<stop stop-color="#2AABEE"/>
<stop offset="1" stop-color="#229ED9"/>
</linearGradient>
<clipPath id="clip0_3_10">
<rect width="59" height="59" fill="white"/>
</clipPath>
</defs>
</svg>
